<svg xmlns="http://www.w3.org/2000/svg" width="30" height="30" viewBox="0 0 30 30">
    <g fill="none" fill-rule="evenodd">
        <g>
            <g>
                <g transform="translate(-714.000000, -243.000000) translate(690.000000, 152.000000) translate(24.000000, 91.000000)">
                    <circle cx="15" cy="15" r="14.5" fill="#F4FAFE" stroke="#010101" stroke-opacity=".06"/>
                    <g>
                        <path fill="#7B869C" d="M12 2c5.523 0 10 4.477 10 10 0 .068 0 .135-.002.203.002.015.002.03.002.047 0 .042-.003.082-.007.123C21.797 17.723 17.398 22 12 22c-5.398 0-9.797-4.277-9.993-9.627-.004-.04-.007-.081-.007-.123l.002-.043L2 12c0-5.43 4.327-9.848 9.72-9.996zM7.089 13.25H4.097c.47 2.996 2.602 5.44 5.422 6.358-1.33-1.908-2.164-4.078-2.43-6.357zm12.814 0h-2.988c-.262 2.269-1.098 4.443-2.434 6.357 2.82-.918 4.952-3.361 5.422-6.356zm-5 0H9.101c.307 2.26 1.286 4.408 2.839 6.221l.06.068.06-.068c1.56-1.82 2.54-3.977 2.843-6.22zM9.52 4.393l-.137.045c-2.907 1.006-5.053 3.64-5.347 6.812h3.002c.19-2.448 1.048-4.802 2.482-6.857zm2.48.067l-.06.069c-1.675 1.956-2.682 4.299-2.898 6.722h5.915c-.223-2.442-1.228-4.776-2.896-6.722L12 4.46zm2.482-.068l.172.254c1.323 1.986 2.12 4.243 2.307 6.605h3.005c-.3-3.222-2.508-5.89-5.484-6.859z" transform="translate(3.000000, 3.000000)"/>
                        <path d="M0 0H24V24H0z" transform="translate(3.000000, 3.000000)"/>
                    </g>
                </g>
            </g>
        </g>
    </g>
</svg>
